<svg width="32" height="32" viewBox="0 0 32 32" xmlns="http://www.w3.org/2000/svg">
  <!-- Background circle -->
  <circle cx="16" cy="16" r="16" fill="#f97316"/>
  <!-- Bitcoin-style 'B' -->
  <path d="M8 6 L8 26 L16 26 Q19 26 20.5 24 Q22 22 22 19 Q22 16 20.5 14 Q19 12 16 12 L12 12 L12 6 Z M11 15 L16 15 Q17.5 15 18.2 16 Q19 17 19 19 Q19 21 18.2 22 Q17.5 23 16 23 L11 23 Z" fill="white"/>
  <!-- Communication dot -->
  <circle cx="24" cy="12" r="1.5" fill="white" opacity="0.8"/>
  <!-- Communication waves -->
  <circle cx="24" cy="12" r="2.5" fill="none" stroke="white" stroke-width="0.5" opacity="0.6"/>
  <circle cx="24" cy="12" r="3.5" fill="none" stroke="white" stroke-width="0.5" opacity="0.4"/>
</svg>
